# xmcd
#
# Track frame offsets: 
#        150
#        12714
#        33300
#        42679
#        57924
#        70762
#        93041
#        102110
#        115469
#        128508
#        132016
#        151570
#        165587
#        175170
#        187858
#
# Disc length: 2860 seconds
#
# Revision: 0
# Processed by: cddbd v1.5.2PL0 Copyright (c) Steve Scherf et al.
# Submitted via: ExactAudioCopy v1.0b4
#
DISCID=b70b2a0f
DTITLE=Brad Vickers and His Vestapolitans - That's What They Say
DYEAR=2015
DGENRE=Blues
TTITLE0=Seminole Blues
TTITLE1=Don't You Love Your Daddy No More
TTITLE2=If You Leave Me Now
TTITLE3=Everything About You Is Blue
TTITLE4=Another Lonesome Road
TTITLE5=That's What They Say
TTITLE6=Mountain Sparrow
TTITLE7=Fightin'
TTITLE8=Don't You Change A Thing
TTITLE9=Wishing Well
TTITLE10=Mama's Cookin'
TTITLE11=Twenty-First Century Rag
TTITLE12=The Secret
TTITLE13=Having A Ball
TTITLE14=In For A Penny
EXTD=
EXTT0=
EXTT1=
EXTT2=
EXTT3=
EXTT4=
EXTT5=
EXTT6=
EXTT7=
EXTT8=
EXTT9=
EXTT10=
EXTT11=
EXTT12=
EXTT13=
EXTT14=
PLAYORDER=
